<svg width="1200" height="630" viewBox="0 0 1200 630" xmlns="http://www.w3.org/2000/svg">
  <defs>
    <style>
      @import url('https://fonts.googleapis.com/css2?family=Caveat:wght@400;700&amp;display=swap');
      .title { font-family: 'Caveat', cursive; font-size: 72px; fill: #2D2A26; }
      .subtitle { font-family: 'Caveat', cursive; font-size: 36px; fill: #8B857C; }
    </style>
  </defs>

  <!-- Background -->
  <rect width="1200" height="630" fill="#FAF7F2"/>

  <!-- Decorative sketch elements -->
  <g stroke="#E8E4DE" stroke-width="2" fill="none" opacity="0.5">
    <!-- Top left corner sketch -->
    <path d="M 50 80 Q 80 50 120 60 Q 100 90 50 80" stroke-linecap="round"/>
    <!-- Bottom right corner sketch -->
    <path d="M 1150 550 Q 1120 580 1080 570 Q 1100 540 1150 550" stroke-linecap="round"/>
  </g>

  <!-- Bowl icon (centered) -->
  <g transform="translate(520, 150)">
    <ellipse cx="80" cy="60" rx="70" ry="90" stroke="#2D2A26" stroke-width="3" fill="none"/>
    <path d="M 30 100 L 50 80 L 80 95 L 110 75 L 130 55" stroke="#2D2A26" stroke-width="2.5" stroke-linecap="round" stroke-linejoin="round" fill="none"/>
    <!-- Steam lines -->
    <path d="M 50 30 Q 55 15 50 0" stroke="#C4C0B9" stroke-width="2" fill="none" stroke-linecap="round"/>
    <path d="M 80 25 Q 85 10 80 -5" stroke="#C4C0B9" stroke-width="2" fill="none" stroke-linecap="round"/>
    <path d="M 110 30 Q 115 15 110 0" stroke="#C4C0B9" stroke-width="2" fill="none" stroke-linecap="round"/>
  </g>

  <!-- Title -->
  <text x="600" y="380" text-anchor="middle" class="title">Gusto</text>

  <!-- Subtitle -->
  <text x="600" y="440" text-anchor="middle" class="subtitle">Il tuo assistente culinario AI</text>

  <!-- Underline sketch -->
  <path d="M 380 460 Q 500 470 600 455 Q 700 445 820 465" stroke="#2D2A26" stroke-width="2" fill="none" stroke-linecap="round"/>

  <!-- Decorative ingredients sketches -->
  <g stroke="#C4C0B9" stroke-width="1.5" fill="none" opacity="0.6">
    <!-- Leaf left -->
    <path d="M 180 480 Q 200 450 220 480 Q 200 510 180 480" stroke-linecap="round"/>
    <path d="M 200 450 L 200 510" stroke-linecap="round"/>

    <!-- Tomato right -->
    <circle cx="1000" cy="480" r="30"/>
    <path d="M 985 455 Q 1000 445 1015 455" stroke-linecap="round"/>

    <!-- Pepper bottom left -->
    <path d="M 250 550 Q 280 530 290 560 Q 270 580 250 550" stroke-linecap="round"/>

    <!-- Garlic bottom right -->
    <path d="M 950 540 Q 940 520 960 510 Q 980 520 970 540 Q 960 555 950 540" stroke-linecap="round"/>
  </g>

  <!-- URL at bottom -->
  <text x="600" y="590" text-anchor="middle" font-family="system-ui, sans-serif" font-size="20" fill="#A8A4A0">gusto-8cx.pages.dev</text>
</svg>
